ISO-10303-21;
HEADER;
/* Generated by software containing ST-Developer
 * from STEP Tools, Inc. (www.steptools.com) 
 */
/* OPTION: using custom renumber hook */

FILE_DESCRIPTION(
/* description */ ('STEP AP242',
'CAx-IF Rec.Pracs.---Representation and Presentation of Product Manufa
cturing Information (PMI)---4.0---2014-10-13',
'CAx-IF Rec.Pracs.---3D Tessellated Geometry---0.4---2014-09-14','2;1'),

/* implementation_level */ '2;1');

FILE_NAME(
/* name */ '68fefc9210f3cf91e41f7141',
/* time_stamp */ '2025-10-27T05:01:07Z',
/* author */ (''),
/* organization */ (''),
/* preprocessor_version */ 'ST-DEVELOPER v20',
/* originating_system */ 'ONSHAPE BY PTC INC, 1.205',
/* authorisation */ '  ');

FILE_SCHEMA (('AP242_MANAGED_MODEL_BASED_3D_ENGINEERING_MIM_LF { 1 0 10303 442 1 1 4 }'));
ENDSEC;

DATA;
#10=SHAPE_REPRESENTATION_RELATIONSHIP('','',#762,#11);
#11=ADVANCED_BREP_SHAPE_REPRESENTATION('',(#760),#1160);
#12=ORIENTED_EDGE('',*,*,#204,.T.);
#13=ORIENTED_EDGE('',*,*,#205,.F.);
#14=ORIENTED_EDGE('',*,*,#206,.F.);
#15=ORIENTED_EDGE('',*,*,#207,.F.);
#16=ORIENTED_EDGE('',*,*,#208,.T.);
#17=ORIENTED_EDGE('',*,*,#209,.F.);
#18=ORIENTED_EDGE('',*,*,#210,.F.);
#19=ORIENTED_EDGE('',*,*,#211,.F.);
#20=ORIENTED_EDGE('',*,*,#212,.F.);
#21=ORIENTED_EDGE('',*,*,#213,.F.);
#22=ORIENTED_EDGE('',*,*,#214,.F.);
#23=ORIENTED_EDGE('',*,*,#215,.F.);
#24=ORIENTED_EDGE('',*,*,#216,.F.);
#25=ORIENTED_EDGE('',*,*,#217,.F.);
#26=ORIENTED_EDGE('',*,*,#218,.F.);
#27=ORIENTED_EDGE('',*,*,#219,.F.);
#28=ORIENTED_EDGE('',*,*,#220,.F.);
#29=ORIENTED_EDGE('',*,*,#221,.F.);
#30=ORIENTED_EDGE('',*,*,#222,.F.);
#31=ORIENTED_EDGE('',*,*,#223,.F.);
#32=ORIENTED_EDGE('',*,*,#224,.T.);
#33=ORIENTED_EDGE('',*,*,#225,.F.);
#34=ORIENTED_EDGE('',*,*,#226,.T.);
#35=ORIENTED_EDGE('',*,*,#227,.T.);
#36=ORIENTED_EDGE('',*,*,#228,.T.);
#37=ORIENTED_EDGE('',*,*,#229,.F.);
#38=ORIENTED_EDGE('',*,*,#230,.T.);
#39=ORIENTED_EDGE('',*,*,#231,.T.);
#40=ORIENTED_EDGE('',*,*,#232,.T.);
#41=ORIENTED_EDGE('',*,*,#233,.F.);
#42=ORIENTED_EDGE('',*,*,#234,.T.);
#43=ORIENTED_EDGE('',*,*,#235,.T.);
#44=ORIENTED_EDGE('',*,*,#236,.T.);
#45=ORIENTED_EDGE('',*,*,#237,.T.);
#46=ORIENTED_EDGE('',*,*,#238,.F.);
#47=ORIENTED_EDGE('',*,*,#239,.T.);
#48=ORIENTED_EDGE('',*,*,#240,.T.);
#49=ORIENTED_EDGE('',*,*,#241,.T.);
#50=ORIENTED_EDGE('',*,*,#242,.F.);
#51=ORIENTED_EDGE('',*,*,#243,.T.);
#52=ORIENTED_EDGE('',*,*,#244,.T.);
#53=ORIENTED_EDGE('',*,*,#243,.F.);
#54=ORIENTED_EDGE('',*,*,#245,.F.);
#55=ORIENTED_EDGE('',*,*,#223,.T.);
#56=ORIENTED_EDGE('',*,*,#217,.T.);
#57=ORIENTED_EDGE('',*,*,#246,.F.);
#58=ORIENTED_EDGE('',*,*,#247,.F.);
#59=ORIENTED_EDGE('',*,*,#248,.T.);
#60=ORIENTED_EDGE('',*,*,#213,.T.);
#61=ORIENTED_EDGE('',*,*,#249,.F.);
#62=ORIENTED_EDGE('',*,*,#250,.F.);
#63=ORIENTED_EDGE('',*,*,#251,.T.);
#64=ORIENTED_EDGE('',*,*,#209,.T.);
#65=ORIENTED_EDGE('',*,*,#252,.T.);
#66=ORIENTED_EDGE('',*,*,#237,.F.);
#67=ORIENTED_EDGE('',*,*,#253,.F.);
#68=ORIENTED_EDGE('',*,*,#221,.T.);
#69=ORIENTED_EDGE('',*,*,#254,.F.);
#70=ORIENTED_EDGE('',*,*,#255,.F.);
#71=ORIENTED_EDGE('',*,*,#256,.T.);
#72=ORIENTED_EDGE('',*,*,#257,.T.);
#73=ORIENTED_EDGE('',*,*,#239,.F.);
#74=ORIENTED_EDGE('',*,*,#258,.F.);
#75=ORIENTED_EDGE('',*,*,#207,.T.);
#76=ORIENTED_EDGE('',*,*,#205,.T.);
#77=ORIENTED_EDGE('',*,*,#259,.F.);
#78=ORIENTED_EDGE('',*,*,#260,.T.);
#79=ORIENTED_EDGE('',*,*,#261,.T.);
#80=ORIENTED_EDGE('',*,*,#233,.T.);
#81=ORIENTED_EDGE('',*,*,#262,.F.);
#82=ORIENTED_EDGE('',*,*,#263,.T.);
#83=ORIENTED_EDGE('',*,*,#264,.T.);
#84=ORIENTED_EDGE('',*,*,#229,.T.);
#85=ORIENTED_EDGE('',*,*,#265,.F.);
#86=ORIENTED_EDGE('',*,*,#266,.T.);
#87=ORIENTED_EDGE('',*,*,#267,.T.);
#88=ORIENTED_EDGE('',*,*,#225,.T.);
#89=ORIENTED_EDGE('',*,*,#268,.T.);
#90=ORIENTED_EDGE('',*,*,#241,.F.);
#91=ORIENTED_EDGE('',*,*,#269,.F.);
#92=ORIENTED_EDGE('',*,*,#238,.T.);
#93=ORIENTED_EDGE('',*,*,#252,.F.);
#94=ORIENTED_EDGE('',*,*,#208,.F.);
#95=ORIENTED_EDGE('',*,*,#258,.T.);
#96=ORIENTED_EDGE('',*,*,#240,.F.);
#97=ORIENTED_EDGE('',*,*,#257,.F.);
#98=ORIENTED_EDGE('',*,*,#206,.T.);
#99=ORIENTED_EDGE('',*,*,#269,.T.);
#100=ORIENTED_EDGE('',*,*,#242,.T.);
#101=ORIENTED_EDGE('',*,*,#268,.F.);
#102=ORIENTED_EDGE('',*,*,#224,.F.);
#103=ORIENTED_EDGE('',*,*,#245,.T.);
#104=ORIENTED_EDGE('',*,*,#236,.F.);
#105=ORIENTED_EDGE('',*,*,#244,.F.);
#106=ORIENTED_EDGE('',*,*,#222,.T.);
#107=ORIENTED_EDGE('',*,*,#253,.T.);
#108=ORIENTED_EDGE('',*,*,#214,.T.);
#109=ORIENTED_EDGE('',*,*,#248,.F.);
#110=ORIENTED_EDGE('',*,*,#270,.F.);
#111=ORIENTED_EDGE('',*,*,#271,.T.);
#112=ORIENTED_EDGE('',*,*,#216,.T.);
#113=ORIENTED_EDGE('',*,*,#272,.F.);
#114=ORIENTED_EDGE('',*,*,#273,.F.);
#115=ORIENTED_EDGE('',*,*,#246,.T.);
#116=ORIENTED_EDGE('',*,*,#215,.T.);
#117=ORIENTED_EDGE('',*,*,#271,.F.);
#118=ORIENTED_EDGE('',*,*,#274,.F.);
#119=ORIENTED_EDGE('',*,*,#272,.T.);
#120=ORIENTED_EDGE('',*,*,#270,.T.);
#121=ORIENTED_EDGE('',*,*,#247,.T.);
#122=ORIENTED_EDGE('',*,*,#273,.T.);
#123=ORIENTED_EDGE('',*,*,#274,.T.);
#124=ORIENTED_EDGE('',*,*,#218,.T.);
#125=ORIENTED_EDGE('',*,*,#256,.F.);
#126=ORIENTED_EDGE('',*,*,#275,.F.);
#127=ORIENTED_EDGE('',*,*,#276,.T.);
#128=ORIENTED_EDGE('',*,*,#220,.T.);
#129=ORIENTED_EDGE('',*,*,#277,.F.);
#130=ORIENTED_EDGE('',*,*,#278,.F.);
#131=ORIENTED_EDGE('',*,*,#254,.T.);
#132=ORIENTED_EDGE('',*,*,#219,.T.);
#133=ORIENTED_EDGE('',*,*,#276,.F.);
#134=ORIENTED_EDGE('',*,*,#279,.F.);
#135=ORIENTED_EDGE('',*,*,#277,.T.);
#136=ORIENTED_EDGE('',*,*,#275,.T.);
#137=ORIENTED_EDGE('',*,*,#255,.T.);
#138=ORIENTED_EDGE('',*,*,#278,.T.);
#139=ORIENTED_EDGE('',*,*,#279,.T.);
#140=ORIENTED_EDGE('',*,*,#210,.T.);
#141=ORIENTED_EDGE('',*,*,#251,.F.);
#142=ORIENTED_EDGE('',*,*,#280,.F.);
#143=ORIENTED_EDGE('',*,*,#281,.T.);
#144=ORIENTED_EDGE('',*,*,#212,.T.);
#145=ORIENTED_EDGE('',*,*,#282,.F.);
#146=ORIENTED_EDGE('',*,*,#283,.F.);
#147=ORIENTED_EDGE('',*,*,#249,.T.);
#148=ORIENTED_EDGE('',*,*,#211,.T.);
#149=ORIENTED_EDGE('',*,*,#281,.F.);
#150=ORIENTED_EDGE('',*,*,#284,.F.);
#151=ORIENTED_EDGE('',*,*,#282,.T.);
#152=ORIENTED_EDGE('',*,*,#280,.T.);
#153=ORIENTED_EDGE('',*,*,#250,.T.);
#154=ORIENTED_EDGE('',*,*,#283,.T.);
#155=ORIENTED_EDGE('',*,*,#284,.T.);
#156=ORIENTED_EDGE('',*,*,#232,.F.);
#157=ORIENTED_EDGE('',*,*,#285,.F.);
#158=ORIENTED_EDGE('',*,*,#286,.T.);
#159=ORIENTED_EDGE('',*,*,#262,.T.);
#160=ORIENTED_EDGE('',*,*,#231,.F.);
#161=ORIENTED_EDGE('',*,*,#287,.F.);
#162=ORIENTED_EDGE('',*,*,#288,.T.);
#163=ORIENTED_EDGE('',*,*,#285,.T.);
#164=ORIENTED_EDGE('',*,*,#230,.F.);
#165=ORIENTED_EDGE('',*,*,#264,.F.);
#166=ORIENTED_EDGE('',*,*,#289,.T.);
#167=ORIENTED_EDGE('',*,*,#287,.T.);
#168=ORIENTED_EDGE('',*,*,#286,.F.);
#169=ORIENTED_EDGE('',*,*,#288,.F.);
#170=ORIENTED_EDGE('',*,*,#289,.F.);
#171=ORIENTED_EDGE('',*,*,#263,.F.);
#172=ORIENTED_EDGE('',*,*,#228,.F.);
#173=ORIENTED_EDGE('',*,*,#290,.F.);
#174=ORIENTED_EDGE('',*,*,#291,.T.);
#175=ORIENTED_EDGE('',*,*,#265,.T.);
#176=ORIENTED_EDGE('',*,*,#227,.F.);
#177=ORIENTED_EDGE('',*,*,#292,.F.);
#178=ORIENTED_EDGE('',*,*,#293,.T.);
#179=ORIENTED_EDGE('',*,*,#290,.T.);
#180=ORIENTED_EDGE('',*,*,#226,.F.);
#181=ORIENTED_EDGE('',*,*,#267,.F.);
#182=ORIENTED_EDGE('',*,*,#294,.T.);
#183=ORIENTED_EDGE('',*,*,#292,.T.);
#184=ORIENTED_EDGE('',*,*,#291,.F.);
#185=ORIENTED_EDGE('',*,*,#293,.F.);
#186=ORIENTED_EDGE('',*,*,#294,.F.);
#187=ORIENTED_EDGE('',*,*,#266,.F.);
#188=ORIENTED_EDGE('',*,*,#204,.F.);
#189=ORIENTED_EDGE('',*,*,#295,.F.);
#190=ORIENTED_EDGE('',*,*,#296,.T.);
#191=ORIENTED_EDGE('',*,*,#259,.T.);
#192=ORIENTED_EDGE('',*,*,#235,.F.);
#193=ORIENTED_EDGE('',*,*,#297,.F.);
#194=ORIENTED_EDGE('',*,*,#298,.T.);
#195=ORIENTED_EDGE('',*,*,#295,.T.);
#196=ORIENTED_EDGE('',*,*,#234,.F.);
#197=ORIENTED_EDGE('',*,*,#261,.F.);
#198=ORIENTED_EDGE('',*,*,#299,.T.);
#199=ORIENTED_EDGE('',*,*,#297,.T.);
#200=ORIENTED_EDGE('',*,*,#296,.F.);
#201=ORIENTED_EDGE('',*,*,#298,.F.);
#202=ORIENTED_EDGE('',*,*,#299,.F.);
#203=ORIENTED_EDGE('',*,*,#260,.F.);
#204=EDGE_CURVE('',#300,#301,#364,.T.);
#205=EDGE_CURVE('',#302,#301,#365,.T.);
#206=EDGE_CURVE('',#303,#302,#366,.T.);
#207=EDGE_CURVE('',#304,#303,#367,.T.);
#208=EDGE_CURVE('',#304,#305,#368,.T.);
#209=EDGE_CURVE('',#306,#305,#369,.T.);
#210=EDGE_CURVE('',#307,#306,#370,.T.);
#211=EDGE_CURVE('',#308,#307,#371,.T.);
#212=EDGE_CURVE('',#309,#308,#372,.T.);
#213=EDGE_CURVE('',#310,#309,#373,.T.);
#214=EDGE_CURVE('',#311,#310,#374,.T.);
#215=EDGE_CURVE('',#312,#311,#375,.T.);
#216=EDGE_CURVE('',#313,#312,#376,.T.);
#217=EDGE_CURVE('',#314,#313,#377,.T.);
#218=EDGE_CURVE('',#315,#314,#378,.T.);
#219=EDGE_CURVE('',#316,#315,#379,.T.);
#220=EDGE_CURVE('',#317,#316,#380,.T.);
#221=EDGE_CURVE('',#318,#317,#381,.T.);
#222=EDGE_CURVE('',#319,#318,#382,.T.);
#223=EDGE_CURVE('',#320,#319,#383,.T.);
#224=EDGE_CURVE('',#320,#321,#384,.T.);
#225=EDGE_CURVE('',#322,#321,#385,.T.);
#226=EDGE_CURVE('',#322,#323,#386,.T.);
#227=EDGE_CURVE('',#323,#324,#387,.T.);
#228=EDGE_CURVE('',#324,#325,#388,.T.);
#229=EDGE_CURVE('',#326,#325,#389,.T.);
#230=EDGE_CURVE('',#326,#327,#390,.T.);
#231=EDGE_CURVE('',#327,#328,#391,.T.);
#232=EDGE_CURVE('',#328,#329,#392,.T.);
#233=EDGE_CURVE('',#330,#329,#393,.T.);
#234=EDGE_CURVE('',#330,#331,#394,.T.);
#235=EDGE_CURVE('',#331,#300,#395,.T.);
#236=EDGE_CURVE('',#332,#333,#396,.T.);
#237=EDGE_CURVE('',#333,#334,#397,.T.);
#238=EDGE_CURVE('',#335,#334,#398,.T.);
#239=EDGE_CURVE('',#335,#336,#399,.T.);
#240=EDGE_CURVE('',#336,#337,#400,.T.);
#241=EDGE_CURVE('',#337,#338,#401,.T.);
#242=EDGE_CURVE('',#339,#338,#402,.T.);
#243=EDGE_CURVE('',#339,#332,#403,.T.);
#244=EDGE_CURVE('',#319,#332,#404,.T.);
#245=EDGE_CURVE('',#320,#339,#405,.T.);
#246=EDGE_CURVE('',#340,#313,#406,.T.);
#247=EDGE_CURVE('',#341,#340,#407,.T.);
#248=EDGE_CURVE('',#341,#310,#408,.T.);
#249=EDGE_CURVE('',#342,#309,#409,.T.);
#250=EDGE_CURVE('',#343,#342,#410,.T.);
#251=EDGE_CURVE('',#343,#306,#411,.T.);
#252=EDGE_CURVE('',#305,#334,#412,.T.);
#253=EDGE_CURVE('',#318,#333,#413,.T.);
#254=EDGE_CURVE('',#344,#317,#414,.T.);
#255=EDGE_CURVE('',#345,#344,#415,.T.);
#256=EDGE_CURVE('',#345,#314,#416,.T.);
#257=EDGE_CURVE('',#303,#336,#417,.T.);
#258=EDGE_CURVE('',#304,#335,#418,.T.);
#259=EDGE_CURVE('',#346,#301,#419,.T.);
#260=EDGE_CURVE('',#346,#347,#420,.T.);
#261=EDGE_CURVE('',#347,#330,#421,.T.);
#262=EDGE_CURVE('',#348,#329,#422,.T.);
#263=EDGE_CURVE('',#348,#349,#423,.T.);
#264=EDGE_CURVE('',#349,#326,#424,.T.);
#265=EDGE_CURVE('',#350,#325,#425,.T.);
#266=EDGE_CURVE('',#350,#351,#426,.T.);
#267=EDGE_CURVE('',#351,#322,#427,.T.);
#268=EDGE_CURVE('',#321,#338,#428,.T.);
#269=EDGE_CURVE('',#302,#337,#429,.T.);
#270=EDGE_CURVE('',#352,#341,#430,.T.);
#271=EDGE_CURVE('',#352,#311,#431,.T.);
#272=EDGE_CURVE('',#353,#312,#432,.T.);
#273=EDGE_CURVE('',#340,#353,#433,.T.);
#274=EDGE_CURVE('',#353,#352,#434,.T.);
#275=EDGE_CURVE('',#354,#345,#435,.T.);
#276=EDGE_CURVE('',#354,#315,#436,.T.);
#277=EDGE_CURVE('',#355,#316,#437,.T.);
#278=EDGE_CURVE('',#344,#355,#438,.T.);
#279=EDGE_CURVE('',#355,#354,#439,.T.);
#280=EDGE_CURVE('',#356,#343,#440,.T.);
#281=EDGE_CURVE('',#356,#307,#441,.T.);
#282=EDGE_CURVE('',#357,#308,#442,.T.);
#283=EDGE_CURVE('',#342,#357,#443,.T.);
#284=EDGE_CURVE('',#357,#356,#444,.T.);
#285=EDGE_CURVE('',#358,#328,#445,.T.);
#286=EDGE_CURVE('',#358,#348,#446,.T.);
#287=EDGE_CURVE('',#359,#327,#447,.T.);
#288=EDGE_CURVE('',#359,#358,#448,.T.);
#289=EDGE_CURVE('',#349,#359,#449,.T.);
#290=EDGE_CURVE('',#360,#324,#450,.T.);
#291=EDGE_CURVE('',#360,#350,#451,.T.);
#292=EDGE_CURVE('',#361,#323,#452,.T.);
#293=EDGE_CURVE('',#361,#360,#453,.T.);
#294=EDGE_CURVE('',#351,#361,#454,.T.);
#295=EDGE_CURVE('',#362,#300,#455,.T.);
#296=EDGE_CURVE('',#362,#346,#456,.T.);
#297=EDGE_CURVE('',#363,#331,#457,.T.);
#298=EDGE_CURVE('',#363,#362,#458,.T.);
#299=EDGE_CURVE('',#347,#363,#459,.T.);
#300=VERTEX_POINT('',#967);
#301=VERTEX_POINT('',#968);
#302=VERTEX_POINT('',#970);
#303=VERTEX_POINT('',#972);
#304=VERTEX_POINT('',#974);
#305=VERTEX_POINT('',#976);
#306=VERTEX_POINT('',#978);
#307=VERTEX_POINT('',#980);
#308=VERTEX_POINT('',#982);
#309=VERTEX_POINT('',#984);
#310=VERTEX_POINT('',#986);
#311=VERTEX_POINT('',#988);
#312=VERTEX_POINT('',#990);
#313=VERTEX_POINT('',#992);
#314=VERTEX_POINT('',#994);
#315=VERTEX_POINT('',#996);
#316=VERTEX_POINT('',#998);
#317=VERTEX_POINT('',#1000);
#318=VERTEX_POINT('',#1002);
#319=VERTEX_POINT('',#1004);
#320=VERTEX_POINT('',#1006);
#321=VERTEX_POINT('',#1008);
#322=VERTEX_POINT('',#1010);
#323=VERTEX_POINT('',#1012);
#324=VERTEX_POINT('',#1014);
#325=VERTEX_POINT('',#1016);
#326=VERTEX_POINT('',#1018);
#327=VERTEX_POINT('',#1020);
#328=VERTEX_POINT('',#1022);
#329=VERTEX_POINT('',#1024);
#330=VERTEX_POINT('',#1026);
#331=VERTEX_POINT('',#1028);
#332=VERTEX_POINT('',#1032);
#333=VERTEX_POINT('',#1033);
#334=VERTEX_POINT('',#1035);
#335=VERTEX_POINT('',#1037);
#336=VERTEX_POINT('',#1039);
#337=VERTEX_POINT('',#1041);
#338=VERTEX_POINT('',#1043);
#339=VERTEX_POINT('',#1045);
#340=VERTEX_POINT('',#1052);
#341=VERTEX_POINT('',#1054);
#342=VERTEX_POINT('',#1057);
#343=VERTEX_POINT('',#1059);
#344=VERTEX_POINT('',#1064);
#345=VERTEX_POINT('',#1066);
#346=VERTEX_POINT('',#1073);
#347=VERTEX_POINT('',#1075);
#348=VERTEX_POINT('',#1078);
#349=VERTEX_POINT('',#1080);
#350=VERTEX_POINT('',#1083);
#351=VERTEX_POINT('',#1085);
#352=VERTEX_POINT('',#1095);
#353=VERTEX_POINT('',#1099);
#354=VERTEX_POINT('',#1106);
#355=VERTEX_POINT('',#1110);
#356=VERTEX_POINT('',#1117);
#357=VERTEX_POINT('',#1121);
#358=VERTEX_POINT('',#1128);
#359=VERTEX_POINT('',#1132);
#360=VERTEX_POINT('',#1139);
#361=VERTEX_POINT('',#1143);
#362=VERTEX_POINT('',#1150);
#363=VERTEX_POINT('',#1154);
#364=LINE('',#966,#460);
#365=LINE('',#969,#461);
#366=LINE('',#971,#462);
#367=LINE('',#973,#463);
#368=LINE('',#975,#464);
#369=LINE('',#977,#465);
#370=LINE('',#979,#466);
#371=LINE('',#981,#467);
#372=LINE('',#983,#468);
#373=LINE('',#985,#469);
#374=LINE('',#987,#470);
#375=LINE('',#989,#471);
#376=LINE('',#991,#472);
#377=LINE('',#993,#473);
#378=LINE('',#995,#474);
#379=LINE('',#997,#475);
#380=LINE('',#999,#476);
#381=LINE('',#1001,#477);
#382=LINE('',#1003,#478);
#383=LINE('',#1005,#479);
#384=LINE('',#1007,#480);
#385=LINE('',#1009,#481);
#386=LINE('',#1011,#482);
#387=LINE('',#1013,#483);
#388=LINE('',#1015,#484);
#389=LINE('',#1017,#485);
#390=LINE('',#1019,#486);
#391=LINE('',#1021,#487);
#392=LINE('',#1023,#488);
#393=LINE('',#1025,#489);
#394=LINE('',#1027,#490);
#395=LINE('',#1029,#491);
#396=LINE('',#1031,#492);
#397=LINE('',#1034,#493);
#398=LINE('',#1036,#494);
#399=LINE('',#1038,#495);
#400=LINE('',#1040,#496);
#401=LINE('',#1042,#497);
#402=LINE('',#1044,#498);
#403=LINE('',#1046,#499);
#404=LINE('',#1048,#500);
#405=LINE('',#1049,#501);
#406=LINE('',#1051,#502);
#407=LINE('',#1053,#503);
#408=LINE('',#1055,#504);
#409=LINE('',#1056,#505);
#410=LINE('',#1058,#506);
#411=LINE('',#1060,#507);
#412=LINE('',#1061,#508);
#413=LINE('',#1062,#509);
#414=LINE('',#1063,#510);
#415=LINE('',#1065,#511);
#416=LINE('',#1067,#512);
#417=LINE('',#1069,#513);
#418=LINE('',#1070,#514);
#419=LINE('',#1072,#515);
#420=LINE('',#1074,#516);
#421=LINE('',#1076,#517);
#422=LINE('',#1077,#518);
#423=LINE('',#1079,#519);
#424=LINE('',#1081,#520);
#425=LINE('',#1082,#521);
#426=LINE('',#1084,#522);
#427=LINE('',#1086,#523);
#428=LINE('',#1087,#524);
#429=LINE('',#1088,#525);
#430=LINE('',#1094,#526);
#431=LINE('',#1096,#527);
#432=LINE('',#1098,#528);
#433=LINE('',#1100,#529);
#434=LINE('',#1102,#530);
#435=LINE('',#1105,#531);
#436=LINE('',#1107,#532);
#437=LINE('',#1109,#533);
#438=LINE('',#1111,#534);
#439=LINE('',#1113,#535);
#440=LINE('',#1116,#536);
#441=LINE('',#1118,#537);
#442=LINE('',#1120,#538);
#443=LINE('',#1122,#539);
#444=LINE('',#1124,#540);
#445=LINE('',#1127,#541);
#446=LINE('',#1129,#542);
#447=LINE('',#1131,#543);
#448=LINE('',#1133,#544);
#449=LINE('',#1135,#545);
#450=LINE('',#1138,#546);
#451=LINE('',#1140,#547);
#452=LINE('',#1142,#548);
#453=LINE('',#1144,#549);
#454=LINE('',#1146,#550);
#455=LINE('',#1149,#551);
#456=LINE('',#1151,#552);
#457=LINE('',#1153,#553);
#458=LINE('',#1155,#554);
#459=LINE('',#1157,#555);
#460=VECTOR('',#802,1.);
#461=VECTOR('',#803,1.);
#462=VECTOR('',#804,1.);
#463=VECTOR('',#805,1.);
#464=VECTOR('',#806,1.);
#465=VECTOR('',#807,1.);
#466=VECTOR('',#808,1.);
#467=VECTOR('',#809,1.);
#468=VECTOR('',#810,1.);
#469=VECTOR('',#811,1.);
#470=VECTOR('',#812,1.);
#471=VECTOR('',#813,1.);
#472=VECTOR('',#814,1.);
#473=VECTOR('',#815,1.);
#474=VECTOR('',#816,1.);
#475=VECTOR('',#817,1.);
#476=VECTOR('',#818,1.);
#477=VECTOR('',#819,1.);
#478=VECTOR('',#820,1.);
#479=VECTOR('',#821,1.);
#480=VECTOR('',#822,1.);
#481=VECTOR('',#823,1.);
#482=VECTOR('',#824,1.);
#483=VECTOR('',#825,1.);
#484=VECTOR('',#826,1.);
#485=VECTOR('',#827,1.);
#486=VECTOR('',#828,1.);
#487=VECTOR('',#829,1.);
#488=VECTOR('',#830,1.);
#489=VECTOR('',#831,1.);
#490=VECTOR('',#832,1.);
#491=VECTOR('',#833,1.);
#492=VECTOR('',#836,1.);
#493=VECTOR('',#837,1.);
#494=VECTOR('',#838,1.);
#495=VECTOR('',#839,1.);
#496=VECTOR('',#840,1.);
#497=VECTOR('',#841,1.);
#498=VECTOR('',#842,1.);
#499=VECTOR('',#843,1.);
#500=VECTOR('',#846,1.);
#501=VECTOR('',#847,1.);
#502=VECTOR('',#850,1.);
#503=VECTOR('',#851,1.);
#504=VECTOR('',#852,1.);
#505=VECTOR('',#853,1.);
#506=VECTOR('',#854,1.);
#507=VECTOR('',#855,1.);
#508=VECTOR('',#856,1.);
#509=VECTOR('',#857,1.);
#510=VECTOR('',#858,1.);
#511=VECTOR('',#859,1.);
#512=VECTOR('',#860,1.);
#513=VECTOR('',#863,1.);
#514=VECTOR('',#864,1.);
#515=VECTOR('',#867,1.);
#516=VECTOR('',#868,1.);
#517=VECTOR('',#869,1.);
#518=VECTOR('',#870,1.);
#519=VECTOR('',#871,1.);
#520=VECTOR('',#872,1.);
#521=VECTOR('',#873,1.);
#522=VECTOR('',#874,1.);
#523=VECTOR('',#875,1.);
#524=VECTOR('',#876,1.);
#525=VECTOR('',#877,1.);
#526=VECTOR('',#888,1.);
#527=VECTOR('',#889,1.);
#528=VECTOR('',#892,1.);
#529=VECTOR('',#893,1.);
#530=VECTOR('',#896,1.);
#531=VECTOR('',#901,1.);
#532=VECTOR('',#902,1.);
#533=VECTOR('',#905,1.);
#534=VECTOR('',#906,1.);
#535=VECTOR('',#909,1.);
#536=VECTOR('',#914,1.);
#537=VECTOR('',#915,1.);
#538=VECTOR('',#918,1.);
#539=VECTOR('',#919,1.);
#540=VECTOR('',#922,1.);
#541=VECTOR('',#927,1.);
#542=VECTOR('',#928,1.);
#543=VECTOR('',#931,1.);
#544=VECTOR('',#932,1.);
#545=VECTOR('',#935,1.);
#546=VECTOR('',#940,1.);
#547=VECTOR('',#941,1.);
#548=VECTOR('',#944,1.);
#549=VECTOR('',#945,1.);
#550=VECTOR('',#948,1.);
#551=VECTOR('',#953,1.);
#552=VECTOR('',#954,1.);
#553=VECTOR('',#957,1.);
#554=VECTOR('',#958,1.);
#555=VECTOR('',#961,1.);
#556=EDGE_LOOP('',(#12,#13,#14,#15,#16,#17,#18,#19,#20,#21,#22,#23,#24,
#25,#26,#27,#28,#29,#30,#31,#32,#33,#34,#35,#36,#37,#38,#39,#40,#41,#42,
#43));
#557=EDGE_LOOP('',(#44,#45,#46,#47,#48,#49,#50,#51));
#558=EDGE_LOOP('',(#52,#53,#54,#55));
#559=EDGE_LOOP('',(#56,#57,#58,#59,#60,#61,#62,#63,#64,#65,#66,#67,#68,
#69,#70,#71));
#560=EDGE_LOOP('',(#72,#73,#74,#75));
#561=EDGE_LOOP('',(#76,#77,#78,#79,#80,#81,#82,#83,#84,#85,#86,#87,#88,
#89,#90,#91));
#562=EDGE_LOOP('',(#92,#93,#94,#95));
#563=EDGE_LOOP('',(#96,#97,#98,#99));
#564=EDGE_LOOP('',(#100,#101,#102,#103));
#565=EDGE_LOOP('',(#104,#105,#106,#107));
#566=EDGE_LOOP('',(#108,#109,#110,#111));
#567=EDGE_LOOP('',(#112,#113,#114,#115));
#568=EDGE_LOOP('',(#116,#117,#118,#119));
#569=EDGE_LOOP('',(#120,#121,#122,#123));
#570=EDGE_LOOP('',(#124,#125,#126,#127));
#571=EDGE_LOOP('',(#128,#129,#130,#131));
#572=EDGE_LOOP('',(#132,#133,#134,#135));
#573=EDGE_LOOP('',(#136,#137,#138,#139));
#574=EDGE_LOOP('',(#140,#141,#142,#143));
#575=EDGE_LOOP('',(#144,#145,#146,#147));
#576=EDGE_LOOP('',(#148,#149,#150,#151));
#577=EDGE_LOOP('',(#152,#153,#154,#155));
#578=EDGE_LOOP('',(#156,#157,#158,#159));
#579=EDGE_LOOP('',(#160,#161,#162,#163));
#580=EDGE_LOOP('',(#164,#165,#166,#167));
#581=EDGE_LOOP('',(#168,#169,#170,#171));
#582=EDGE_LOOP('',(#172,#173,#174,#175));
#583=EDGE_LOOP('',(#176,#177,#178,#179));
#584=EDGE_LOOP('',(#180,#181,#182,#183));
#585=EDGE_LOOP('',(#184,#185,#186,#187));
#586=EDGE_LOOP('',(#188,#189,#190,#191));
#587=EDGE_LOOP('',(#192,#193,#194,#195));
#588=EDGE_LOOP('',(#196,#197,#198,#199));
#589=EDGE_LOOP('',(#200,#201,#202,#203));
#590=FACE_BOUND('',#556,.T.);
#591=FACE_BOUND('',#557,.T.);
#592=FACE_BOUND('',#558,.T.);
#593=FACE_BOUND('',#559,.T.);
#594=FACE_BOUND('',#560,.T.);
#595=FACE_BOUND('',#561,.T.);
#596=FACE_BOUND('',#562,.T.);
#597=FACE_BOUND('',#563,.T.);
#598=FACE_BOUND('',#564,.T.);
#599=FACE_BOUND('',#565,.T.);
#600=FACE_BOUND('',#566,.T.);
#601=FACE_BOUND('',#567,.T.);
#602=FACE_BOUND('',#568,.T.);
#603=FACE_BOUND('',#569,.T.);
#604=FACE_BOUND('',#570,.T.);
#605=FACE_BOUND('',#571,.T.);
#606=FACE_BOUND('',#572,.T.);
#607=FACE_BOUND('',#573,.T.);
#608=FACE_BOUND('',#574,.T.);
#609=FACE_BOUND('',#575,.T.);
#610=FACE_BOUND('',#576,.T.);
#611=FACE_BOUND('',#577,.T.);
#612=FACE_BOUND('',#578,.T.);
#613=FACE_BOUND('',#579,.T.);
#614=FACE_BOUND('',#580,.T.);
#615=FACE_BOUND('',#581,.T.);
#616=FACE_BOUND('',#582,.T.);
#617=FACE_BOUND('',#583,.T.);
#618=FACE_BOUND('',#584,.T.);
#619=FACE_BOUND('',#585,.T.);
#620=FACE_BOUND('',#586,.T.);
#621=FACE_BOUND('',#587,.T.);
#622=FACE_BOUND('',#588,.T.);
#623=FACE_BOUND('',#589,.T.);
#624=PLANE('',#764);
#625=PLANE('',#765);
#626=PLANE('',#766);
#627=PLANE('',#767);
#628=PLANE('',#768);
#629=PLANE('',#769);
#630=PLANE('',#770);
#631=PLANE('',#771);
#632=PLANE('',#772);
#633=PLANE('',#773);
#634=PLANE('',#774);
#635=PLANE('',#775);
#636=PLANE('',#776);
#637=PLANE('',#777);
#638=PLANE('',#778);
#639=PLANE('',#779);
#640=PLANE('',#780);
#641=PLANE('',#781);
#642=PLANE('',#782);
#643=PLANE('',#783);
#644=PLANE('',#784);
#645=PLANE('',#785);
#646=PLANE('',#786);
#647=PLANE('',#787);
#648=PLANE('',#788);
#649=PLANE('',#789);
#650=PLANE('',#790);
#651=PLANE('',#791);
#652=PLANE('',#792);
#653=PLANE('',#793);
#654=PLANE('',#794);
#655=PLANE('',#795);
#656=PLANE('',#796);
#657=PLANE('',#797);
#658=OVER_RIDING_STYLED_ITEM('',(#704),#667,#702);
#659=OVER_RIDING_STYLED_ITEM('',(#705),#668,#702);
#660=OVER_RIDING_STYLED_ITEM('',(#706),#680,#702);
#661=OVER_RIDING_STYLED_ITEM('',(#707),#684,#702);
#662=OVER_RIDING_STYLED_ITEM('',(#708),#688,#702);
#663=OVER_RIDING_STYLED_ITEM('',(#709),#692,#702);
#664=OVER_RIDING_STYLED_ITEM('',(#710),#696,#702);
#665=OVER_RIDING_STYLED_ITEM('',(#711),#700,#702);
#666=DRAUGHTING_PRE_DEFINED_COLOUR('white');
#667=ADVANCED_FACE('',(#590),#624,.T.);
#668=ADVANCED_FACE('',(#591),#625,.F.);
#669=ADVANCED_FACE('',(#592),#626,.F.);
#670=ADVANCED_FACE('',(#593),#627,.F.);
#671=ADVANCED_FACE('',(#594),#628,.F.);
#672=ADVANCED_FACE('',(#595),#629,.F.);
#673=ADVANCED_FACE('',(#596),#630,.F.);
#674=ADVANCED_FACE('',(#597),#631,.T.);
#675=ADVANCED_FACE('',(#598),#632,.F.);
#676=ADVANCED_FACE('',(#599),#633,.T.);
#677=ADVANCED_FACE('',(#600),#634,.F.);
#678=ADVANCED_FACE('',(#601),#635,.F.);
#679=ADVANCED_FACE('',(#602),#636,.F.);
#680=ADVANCED_FACE('',(#603),#637,.F.);
#681=ADVANCED_FACE('',(#604),#638,.F.);
#682=ADVANCED_FACE('',(#605),#639,.F.);
#683=ADVANCED_FACE('',(#606),#640,.F.);
#684=ADVANCED_FACE('',(#607),#641,.F.);
#685=ADVANCED_FACE('',(#608),#642,.F.);
#686=ADVANCED_FACE('',(#609),#643,.F.);
#687=ADVANCED_FACE('',(#610),#644,.F.);
#688=ADVANCED_FACE('',(#611),#645,.F.);
#689=ADVANCED_FACE('',(#612),#646,.T.);
#690=ADVANCED_FACE('',(#613),#647,.T.);
#691=ADVANCED_FACE('',(#614),#648,.T.);
#692=ADVANCED_FACE('',(#615),#649,.F.);
#693=ADVANCED_FACE('',(#616),#650,.T.);
#694=ADVANCED_FACE('',(#617),#651,.T.);
#695=ADVANCED_FACE('',(#618),#652,.T.);
#696=ADVANCED_FACE('',(#619),#653,.F.);
#697=ADVANCED_FACE('',(#620),#654,.T.);
#698=ADVANCED_FACE('',(#621),#655,.T.);
#699=ADVANCED_FACE('',(#622),#656,.T.);
#700=ADVANCED_FACE('',(#623),#657,.F.);
#701=CLOSED_SHELL('',(#667,#668,#669,#670,#671,#672,#673,#674,#675,#676,
#677,#678,#679,#680,#681,#682,#683,#684,#685,#686,#687,#688,#689,#690,#691,
#692,#693,#694,#695,#696,#697,#698,#699,#700));
#702=STYLED_ITEM('',(#703),#760);
#703=PRESENTATION_STYLE_ASSIGNMENT((#712));
#704=PRESENTATION_STYLE_ASSIGNMENT((#713));
#705=PRESENTATION_STYLE_ASSIGNMENT((#714));
#706=PRESENTATION_STYLE_ASSIGNMENT((#715));
#707=PRESENTATION_STYLE_ASSIGNMENT((#716));
#708=PRESENTATION_STYLE_ASSIGNMENT((#717));
#709=PRESENTATION_STYLE_ASSIGNMENT((#718));
#710=PRESENTATION_STYLE_ASSIGNMENT((#719));
#711=PRESENTATION_STYLE_ASSIGNMENT((#720));
#712=SURFACE_STYLE_USAGE(.BOTH.,#721);
#713=SURFACE_STYLE_USAGE(.BOTH.,#722);
#714=SURFACE_STYLE_USAGE(.BOTH.,#723);
#715=SURFACE_STYLE_USAGE(.BOTH.,#724);
#716=SURFACE_STYLE_USAGE(.BOTH.,#725);
#717=SURFACE_STYLE_USAGE(.BOTH.,#726);
#718=SURFACE_STYLE_USAGE(.BOTH.,#727);
#719=SURFACE_STYLE_USAGE(.BOTH.,#728);
#720=SURFACE_STYLE_USAGE(.BOTH.,#729);
#721=SURFACE_SIDE_STYLE('',(#730));
#722=SURFACE_SIDE_STYLE('',(#731));
#723=SURFACE_SIDE_STYLE('',(#732));
#724=SURFACE_SIDE_STYLE('',(#733));
#725=SURFACE_SIDE_STYLE('',(#734));
#726=SURFACE_SIDE_STYLE('',(#735));
#727=SURFACE_SIDE_STYLE('',(#736));
#728=SURFACE_SIDE_STYLE('',(#737));
#729=SURFACE_SIDE_STYLE('',(#738));
#730=SURFACE_STYLE_FILL_AREA(#739);
#731=SURFACE_STYLE_FILL_AREA(#740);
#732=SURFACE_STYLE_FILL_AREA(#741);
#733=SURFACE_STYLE_FILL_AREA(#742);
#734=SURFACE_STYLE_FILL_AREA(#743);
#735=SURFACE_STYLE_FILL_AREA(#744);
#736=SURFACE_STYLE_FILL_AREA(#745);
#737=SURFACE_STYLE_FILL_AREA(#746);
#738=SURFACE_STYLE_FILL_AREA(#747);
#739=FILL_AREA_STYLE('',(#748));
#740=FILL_AREA_STYLE('',(#749));
#741=FILL_AREA_STYLE('',(#750));
#742=FILL_AREA_STYLE('',(#751));
#743=FILL_AREA_STYLE('',(#752));
#744=FILL_AREA_STYLE('',(#753));
#745=FILL_AREA_STYLE('',(#754));
#746=FILL_AREA_STYLE('',(#755));
#747=FILL_AREA_STYLE('',(#756));
#748=FILL_AREA_STYLE_COLOUR('',#757);
#749=FILL_AREA_STYLE_COLOUR('',#666);
#750=FILL_AREA_STYLE_COLOUR('',#758);
#751=FILL_AREA_STYLE_COLOUR('',#759);
#752=FILL_AREA_STYLE_COLOUR('',#759);
#753=FILL_AREA_STYLE_COLOUR('',#759);
#754=FILL_AREA_STYLE_COLOUR('',#759);
#755=FILL_AREA_STYLE_COLOUR('',#759);
#756=FILL_AREA_STYLE_COLOUR('',#759);
#757=COLOUR_RGB('',0.796078431372549,0.823529411764706,0.937254901960784);
#758=COLOUR_RGB('',0.0196078431372549,0.,0.623529411764706);
#759=COLOUR_RGB('',0.968627450980392,1.,0.996078431372549);
#760=MANIFOLD_SOLID_BREP('Part 1',#701);
#761=SHAPE_DEFINITION_REPRESENTATION(#1165,#762);
#762=SHAPE_REPRESENTATION('Part 1',(#763),#1160);
#763=AXIS2_PLACEMENT_3D('',#964,#798,#799);
#764=AXIS2_PLACEMENT_3D('',#965,#800,#801);
#765=AXIS2_PLACEMENT_3D('',#1030,#834,#835);
#766=AXIS2_PLACEMENT_3D('',#1047,#844,#845);
#767=AXIS2_PLACEMENT_3D('',#1050,#848,#849);
#768=AXIS2_PLACEMENT_3D('',#1068,#861,#862);
#769=AXIS2_PLACEMENT_3D('',#1071,#865,#866);
#770=AXIS2_PLACEMENT_3D('',#1089,#878,#879);
#771=AXIS2_PLACEMENT_3D('',#1090,#880,#881);
#772=AXIS2_PLACEMENT_3D('',#1091,#882,#883);
#773=AXIS2_PLACEMENT_3D('',#1092,#884,#885);
#774=AXIS2_PLACEMENT_3D('',#1093,#886,#887);
#775=AXIS2_PLACEMENT_3D('',#1097,#890,#891);
#776=AXIS2_PLACEMENT_3D('',#1101,#894,#895);
#777=AXIS2_PLACEMENT_3D('',#1103,#897,#898);
#778=AXIS2_PLACEMENT_3D('',#1104,#899,#900);
#779=AXIS2_PLACEMENT_3D('',#1108,#903,#904);
#780=AXIS2_PLACEMENT_3D('',#1112,#907,#908);
#781=AXIS2_PLACEMENT_3D('',#1114,#910,#911);
#782=AXIS2_PLACEMENT_3D('',#1115,#912,#913);
#783=AXIS2_PLACEMENT_3D('',#1119,#916,#917);
#784=AXIS2_PLACEMENT_3D('',#1123,#920,#921);
#785=AXIS2_PLACEMENT_3D('',#1125,#923,#924);
#786=AXIS2_PLACEMENT_3D('',#1126,#925,#926);
#787=AXIS2_PLACEMENT_3D('',#1130,#929,#930);
#788=AXIS2_PLACEMENT_3D('',#1134,#933,#934);
#789=AXIS2_PLACEMENT_3D('',#1136,#936,#937);
#790=AXIS2_PLACEMENT_3D('',#1137,#938,#939);
#791=AXIS2_PLACEMENT_3D('',#1141,#942,#943);
#792=AXIS2_PLACEMENT_3D('',#1145,#946,#947);
#793=AXIS2_PLACEMENT_3D('',#1147,#949,#950);
#794=AXIS2_PLACEMENT_3D('',#1148,#951,#952);
#795=AXIS2_PLACEMENT_3D('',#1152,#955,#956);
#796=AXIS2_PLACEMENT_3D('',#1156,#959,#960);
#797=AXIS2_PLACEMENT_3D('',#1158,#962,#963);
#798=DIRECTION('',(0.,0.,1.));
#799=DIRECTION('',(1.,0.,0.));
#800=DIRECTION('',(0.,0.,-1.));
#801=DIRECTION('',(-1.,0.,0.));
#802=DIRECTION('',(0.,-1.,0.));
#803=DIRECTION('',(1.,0.,0.));
#804=DIRECTION('',(0.707106781186547,-0.707106781186548,0.));
#805=DIRECTION('',(0.,-1.,0.));
#806=DIRECTION('',(0.707106781186547,0.707106781186548,0.));
#807=DIRECTION('',(-1.,0.,0.));
#808=DIRECTION('',(0.,1.,0.));
#809=DIRECTION('',(-1.,0.,0.));
#810=DIRECTION('',(0.,-1.,0.));
#811=DIRECTION('',(-1.,0.,0.));
#812=DIRECTION('',(0.,1.,0.));
#813=DIRECTION('',(-1.,0.,0.));
#814=DIRECTION('',(0.,-1.,0.));
#815=DIRECTION('',(-1.,0.,0.));
#816=DIRECTION('',(0.,1.,0.));
#817=DIRECTION('',(-1.,0.,0.));
#818=DIRECTION('',(0.,-1.,0.));
#819=DIRECTION('',(-1.,0.,0.));
#820=DIRECTION('',(-0.707106781186547,0.707106781186548,0.));
#821=DIRECTION('',(0.,1.,0.));
#822=DIRECTION('',(-0.707106781186547,-0.707106781186548,0.));
#823=DIRECTION('',(1.,0.,0.));
#824=DIRECTION('',(0.,1.,0.));
#825=DIRECTION('',(-1.,0.,0.));
#826=DIRECTION('',(0.,-1.,0.));
#827=DIRECTION('',(1.,0.,0.));
#828=DIRECTION('',(0.,1.,0.));
#829=DIRECTION('',(-1.,0.,0.));
#830=DIRECTION('',(0.,-1.,0.));
#831=DIRECTION('',(1.,0.,0.));
#832=DIRECTION('',(0.,1.,0.));
#833=DIRECTION('',(-1.,0.,0.));
#834=DIRECTION('',(0.,0.,-1.));
#835=DIRECTION('',(-1.,0.,0.));
#836=DIRECTION('',(-0.707106781186547,0.707106781186548,0.));
#837=DIRECTION('',(-1.,0.,0.));
#838=DIRECTION('',(0.707106781186547,0.707106781186548,0.));
#839=DIRECTION('',(0.,-1.,0.));
#840=DIRECTION('',(0.707106781186547,-0.707106781186548,0.));
#841=DIRECTION('',(1.,0.,0.));
#842=DIRECTION('',(-0.707106781186547,-0.707106781186548,0.));
#843=DIRECTION('',(0.,1.,0.));
#844=DIRECTION('',(-1.,0.,0.));
#845=DIRECTION('',(0.,0.,1.));
#846=DIRECTION('',(0.,0.,1.));
#847=DIRECTION('',(0.,0.,1.));
#848=DIRECTION('',(0.,-1.,0.));
#849=DIRECTION('',(0.,0.,-1.));
#850=DIRECTION('',(0.,0.,1.));
#851=DIRECTION('',(1.,0.,0.));
#852=DIRECTION('',(0.,0.,1.));
#853=DIRECTION('',(0.,0.,1.));
#854=DIRECTION('',(1.,0.,0.));
#855=DIRECTION('',(0.,0.,1.));
#856=DIRECTION('',(0.,0.,1.));
#857=DIRECTION('',(0.,0.,1.));
#858=DIRECTION('',(0.,0.,1.));
#859=DIRECTION('',(1.,0.,0.));
#860=DIRECTION('',(0.,0.,1.));
#861=DIRECTION('',(1.,0.,0.));
#862=DIRECTION('',(0.,0.,-1.));
#863=DIRECTION('',(0.,0.,1.));
#864=DIRECTION('',(0.,0.,1.));
#865=DIRECTION('',(0.,1.,0.));
#866=DIRECTION('',(0.,0.,1.));
#867=DIRECTION('',(0.,0.,1.));
#868=DIRECTION('',(1.,0.,0.));
#869=DIRECTION('',(0.,0.,1.));
#870=DIRECTION('',(0.,0.,1.));
#871=DIRECTION('',(1.,0.,0.));
#872=DIRECTION('',(0.,0.,1.));
#873=DIRECTION('',(0.,0.,1.));
#874=DIRECTION('',(1.,0.,0.));
#875=DIRECTION('',(0.,0.,1.));
#876=DIRECTION('',(0.,0.,1.));
#877=DIRECTION('',(0.,0.,1.));
#878=DIRECTION('',(0.707106781186548,-0.707106781186547,0.));
#879=DIRECTION('',(0.707106781186547,0.707106781186548,0.));
#880=DIRECTION('',(-0.707106781186548,-0.707106781186547,0.));
#881=DIRECTION('',(0.707106781186547,-0.707106781186548,0.));
#882=DIRECTION('',(-0.707106781186548,0.707106781186547,0.));
#883=DIRECTION('',(-0.707106781186547,-0.707106781186548,0.));
#884=DIRECTION('',(0.707106781186548,0.707106781186547,0.));
#885=DIRECTION('',(-0.707106781186547,0.707106781186548,0.));
#886=DIRECTION('',(1.,0.,0.));
#887=DIRECTION('',(0.,0.,-1.));
#888=DIRECTION('',(0.,1.,0.));
#889=DIRECTION('',(0.,0.,1.));
#890=DIRECTION('',(-1.,0.,0.));
#891=DIRECTION('',(0.,0.,1.));
#892=DIRECTION('',(0.,0.,1.));
#893=DIRECTION('',(0.,-1.,0.));
#894=DIRECTION('',(0.,1.,0.));
#895=DIRECTION('',(0.,0.,1.));
#896=DIRECTION('',(-1.,0.,0.));
#897=DIRECTION('',(0.,0.,1.));
#898=DIRECTION('',(1.,0.,0.));
#899=DIRECTION('',(1.,0.,0.));
#900=DIRECTION('',(0.,0.,-1.));
#901=DIRECTION('',(0.,1.,0.));
#902=DIRECTION('',(0.,0.,1.));
#903=DIRECTION('',(-1.,0.,0.));
#904=DIRECTION('',(0.,0.,1.));
#905=DIRECTION('',(0.,0.,1.));
#906=DIRECTION('',(0.,-1.,0.));
#907=DIRECTION('',(0.,1.,0.));
#908=DIRECTION('',(0.,0.,1.));
#909=DIRECTION('',(-1.,0.,0.));
#910=DIRECTION('',(0.,0.,1.));
#911=DIRECTION('',(1.,0.,0.));
#912=DIRECTION('',(1.,0.,0.));
#913=DIRECTION('',(0.,0.,-1.));
#914=DIRECTION('',(0.,1.,0.));
#915=DIRECTION('',(0.,0.,1.));
#916=DIRECTION('',(-1.,0.,0.));
#917=DIRECTION('',(0.,0.,1.));
#918=DIRECTION('',(0.,0.,1.));
#919=DIRECTION('',(0.,-1.,0.));
#920=DIRECTION('',(0.,1.,0.));
#921=DIRECTION('',(0.,0.,1.));
#922=DIRECTION('',(-1.,0.,0.));
#923=DIRECTION('',(0.,0.,1.));
#924=DIRECTION('',(1.,0.,0.));
#925=DIRECTION('',(-1.,0.,0.));
#926=DIRECTION('',(0.,0.,1.));
#927=DIRECTION('',(0.,0.,1.));
#928=DIRECTION('',(0.,-1.,0.));
#929=DIRECTION('',(0.,1.,0.));
#930=DIRECTION('',(0.,0.,1.));
#931=DIRECTION('',(0.,0.,1.));
#932=DIRECTION('',(-1.,0.,0.));
#933=DIRECTION('',(1.,0.,0.));
#934=DIRECTION('',(0.,0.,-1.));
#935=DIRECTION('',(0.,1.,0.));
#936=DIRECTION('',(0.,0.,1.));
#937=DIRECTION('',(1.,0.,0.));
#938=DIRECTION('',(-1.,0.,0.));
#939=DIRECTION('',(0.,0.,1.));
#940=DIRECTION('',(0.,0.,1.));
#941=DIRECTION('',(0.,-1.,0.));
#942=DIRECTION('',(0.,1.,0.));
#943=DIRECTION('',(0.,0.,1.));
#944=DIRECTION('',(0.,0.,1.));
#945=DIRECTION('',(-1.,0.,0.));
#946=DIRECTION('',(1.,0.,0.));
#947=DIRECTION('',(0.,0.,-1.));
#948=DIRECTION('',(0.,1.,0.));
#949=DIRECTION('',(0.,0.,1.));
#950=DIRECTION('',(1.,0.,0.));
#951=DIRECTION('',(-1.,0.,0.));
#952=DIRECTION('',(0.,0.,1.));
#953=DIRECTION('',(0.,0.,1.));
#954=DIRECTION('',(0.,-1.,0.));
#955=DIRECTION('',(0.,1.,0.));
#956=DIRECTION('',(0.,0.,1.));
#957=DIRECTION('',(0.,0.,1.));
#958=DIRECTION('',(-1.,0.,0.));
#959=DIRECTION('',(1.,0.,0.));
#960=DIRECTION('',(0.,0.,-1.));
#961=DIRECTION('',(0.,1.,0.));
#962=DIRECTION('',(0.,0.,1.));
#963=DIRECTION('',(1.,0.,0.));
#964=CARTESIAN_POINT('',(0.,0.,0.));
#965=CARTESIAN_POINT('',(0.,0.,0.));
#966=CARTESIAN_POINT('',(-0.04,-0.0571,0.));
#967=CARTESIAN_POINT('',(-0.04,-0.0571,0.));
#968=CARTESIAN_POINT('',(-0.04,-0.0625,0.));
#969=CARTESIAN_POINT('',(-0.0625,-0.0625,0.));
#970=CARTESIAN_POINT('',(-0.0506370849898476,-0.0625,0.));
#971=CARTESIAN_POINT('',(-0.0625,-0.050637084989847,0.));
#972=CARTESIAN_POINT('',(-0.0625,-0.0506370849898476,0.));
#973=CARTESIAN_POINT('',(-0.0625,-0.0625,0.));
#974=CARTESIAN_POINT('',(-0.0625,0.050637084989847,0.));
#975=CARTESIAN_POINT('',(-0.0625,0.050637084989847,0.));
#976=CARTESIAN_POINT('',(-0.0506370849898476,0.0625,0.));
#977=CARTESIAN_POINT('',(-0.0625,0.0625,0.));
#978=CARTESIAN_POINT('',(-0.04,0.0625,0.));
#979=CARTESIAN_POINT('',(-0.04,0.0571,0.));
#980=CARTESIAN_POINT('',(-0.04,0.0571,0.));
#981=CARTESIAN_POINT('',(-0.037,0.0571,0.));
#982=CARTESIAN_POINT('',(-0.037,0.0571,0.));
#983=CARTESIAN_POINT('',(-0.037,0.0571,0.));
#984=CARTESIAN_POINT('',(-0.037,0.0625,0.));
#985=CARTESIAN_POINT('',(-0.0625,0.0625,0.));
#986=CARTESIAN_POINT('',(-0.0015,0.0625,0.));
#987=CARTESIAN_POINT('',(-0.0015,0.0571,0.));
#988=CARTESIAN_POINT('',(-0.0015,0.0571,0.));
#989=CARTESIAN_POINT('',(0.0015,0.0571,0.));
#990=CARTESIAN_POINT('',(0.0015,0.0571,0.));
#991=CARTESIAN_POINT('',(0.0015,0.0571,0.));
#992=CARTESIAN_POINT('',(0.0015,0.0625,0.));
#993=CARTESIAN_POINT('',(-0.0625,0.0625,0.));
#994=CARTESIAN_POINT('',(0.037,0.0625,0.));
#995=CARTESIAN_POINT('',(0.037,0.0571,0.));
#996=CARTESIAN_POINT('',(0.037,0.0571,0.));
#997=CARTESIAN_POINT('',(0.04,0.0571,0.));
#998=CARTESIAN_POINT('',(0.04,0.0571,0.));
#999=CARTESIAN_POINT('',(0.04,0.0571,0.));
#1000=CARTESIAN_POINT('',(0.04,0.0625,0.));
#1001=CARTESIAN_POINT('',(-0.0625,0.0625,0.));
#1002=CARTESIAN_POINT('',(0.0506370849898476,0.0625,0.));
#1003=CARTESIAN_POINT('',(0.0625,0.050637084989847,0.));
#1004=CARTESIAN_POINT('',(0.0625,0.050637084989847,0.));
#1005=CARTESIAN_POINT('',(0.0625,-0.0625,0.));
#1006=CARTESIAN_POINT('',(0.0625,-0.050637084989847,0.));
#1007=CARTESIAN_POINT('',(0.0625,-0.050637084989847,0.));
#1008=CARTESIAN_POINT('',(0.0506370849898476,-0.0625,0.));
#1009=CARTESIAN_POINT('',(-0.0625,-0.0625,0.));
#1010=CARTESIAN_POINT('',(0.04,-0.0625,0.));
#1011=CARTESIAN_POINT('',(0.04,-0.0571,0.));
#1012=CARTESIAN_POINT('',(0.04,-0.0571,0.));
#1013=CARTESIAN_POINT('',(0.04,-0.0571,0.));
#1014=CARTESIAN_POINT('',(0.037,-0.0571,0.));
#1015=CARTESIAN_POINT('',(0.037,-0.0571,0.));
#1016=CARTESIAN_POINT('',(0.037,-0.0625,0.));
#1017=CARTESIAN_POINT('',(-0.0625,-0.0625,0.));
#1018=CARTESIAN_POINT('',(0.0015,-0.0625,0.));
#1019=CARTESIAN_POINT('',(0.0015,-0.0571,0.));
#1020=CARTESIAN_POINT('',(0.0015,-0.0571,0.));
#1021=CARTESIAN_POINT('',(0.0015,-0.0571,0.));
#1022=CARTESIAN_POINT('',(-0.0015,-0.0571,0.));
#1023=CARTESIAN_POINT('',(-0.0015,-0.0571,0.));
#1024=CARTESIAN_POINT('',(-0.0015,-0.0625,0.));
#1025=CARTESIAN_POINT('',(-0.0625,-0.0625,0.));
#1026=CARTESIAN_POINT('',(-0.037,-0.0625,0.));
#1027=CARTESIAN_POINT('',(-0.037,-0.0571,0.));
#1028=CARTESIAN_POINT('',(-0.037,-0.0571,0.));
#1029=CARTESIAN_POINT('',(-0.037,-0.0571,0.));
#1030=CARTESIAN_POINT('',(0.,0.,0.00015));
#1031=CARTESIAN_POINT('',(0.0625,0.050637084989847,0.00015));
#1032=CARTESIAN_POINT('',(0.0625,0.050637084989847,0.00015));
#1033=CARTESIAN_POINT('',(0.0506370849898476,0.0625,0.00015));
#1034=CARTESIAN_POINT('',(-0.0625,0.0625,0.00015));
#1035=CARTESIAN_POINT('',(-0.0506370849898476,0.0625,0.00015));
#1036=CARTESIAN_POINT('',(-0.0625,0.050637084989847,0.00015));
#1037=CARTESIAN_POINT('',(-0.0625,0.050637084989847,0.00015));
#1038=CARTESIAN_POINT('',(-0.0625,-0.0625,0.00015));
#1039=CARTESIAN_POINT('',(-0.0625,-0.050637084989847,0.00015));
#1040=CARTESIAN_POINT('',(-0.0625,-0.050637084989847,0.00015));
#1041=CARTESIAN_POINT('',(-0.0506370849898476,-0.0625,0.00015));
#1042=CARTESIAN_POINT('',(-0.0625,-0.0625,0.00015));
#1043=CARTESIAN_POINT('',(0.0506370849898476,-0.0625,0.00015));
#1044=CARTESIAN_POINT('',(0.0625,-0.050637084989847,0.00015));
#1045=CARTESIAN_POINT('',(0.0625,-0.050637084989847,0.00015));
#1046=CARTESIAN_POINT('',(0.0625,-0.0625,0.00015));
#1047=CARTESIAN_POINT('',(0.0625,-0.0625,0.00015));
#1048=CARTESIAN_POINT('',(0.0625,0.050637084989847,0.));
#1049=CARTESIAN_POINT('',(0.0625,-0.050637084989847,0.));
#1050=CARTESIAN_POINT('',(-0.0625,0.0625,0.00015));
#1051=CARTESIAN_POINT('',(0.0015,0.0625,-1.E-5));
#1052=CARTESIAN_POINT('',(0.0015,0.0625,-1.E-5));
#1053=CARTESIAN_POINT('',(0.0015,0.0625,-1.E-5));
#1054=CARTESIAN_POINT('',(-0.0015,0.0625,-1.E-5));
#1055=CARTESIAN_POINT('',(-0.0015,0.0625,-1.E-5));
#1056=CARTESIAN_POINT('',(-0.037,0.0625,-1.E-5));
#1057=CARTESIAN_POINT('',(-0.037,0.0625,-1.E-5));
#1058=CARTESIAN_POINT('',(-0.037,0.0625,-1.E-5));
#1059=CARTESIAN_POINT('',(-0.04,0.0625,-1.E-5));
#1060=CARTESIAN_POINT('',(-0.04,0.0625,-1.E-5));
#1061=CARTESIAN_POINT('',(-0.0506370849898476,0.0625,0.));
#1062=CARTESIAN_POINT('',(0.0506370849898476,0.0625,0.));
#1063=CARTESIAN_POINT('',(0.04,0.0625,-1.E-5));
#1064=CARTESIAN_POINT('',(0.04,0.0625,-1.E-5));
#1065=CARTESIAN_POINT('',(0.04,0.0625,-1.E-5));
#1066=CARTESIAN_POINT('',(0.037,0.0625,-1.E-5));
#1067=CARTESIAN_POINT('',(0.037,0.0625,-1.E-5));
#1068=CARTESIAN_POINT('',(-0.0625,-0.0625,0.00015));
#1069=CARTESIAN_POINT('',(-0.0625,-0.050637084989847,0.));
#1070=CARTESIAN_POINT('',(-0.0625,0.050637084989847,0.));
#1071=CARTESIAN_POINT('',(-0.0625,-0.0625,0.00015));
#1072=CARTESIAN_POINT('',(-0.04,-0.0625,-1.E-5));
#1073=CARTESIAN_POINT('',(-0.04,-0.0625,-1.E-5));
#1074=CARTESIAN_POINT('',(-0.037,-0.0625,-1.E-5));
#1075=CARTESIAN_POINT('',(-0.037,-0.0625,-1.E-5));
#1076=CARTESIAN_POINT('',(-0.037,-0.0625,-1.E-5));
#1077=CARTESIAN_POINT('',(-0.0015,-0.0625,-1.E-5));
#1078=CARTESIAN_POINT('',(-0.0015,-0.0625,-1.E-5));
#1079=CARTESIAN_POINT('',(0.0015,-0.0625,-1.E-5));
#1080=CARTESIAN_POINT('',(0.0015,-0.0625,-1.E-5));
#1081=CARTESIAN_POINT('',(0.0015,-0.0625,-1.E-5));
#1082=CARTESIAN_POINT('',(0.037,-0.0625,-1.E-5));
#1083=CARTESIAN_POINT('',(0.037,-0.0625,-1.E-5));
#1084=CARTESIAN_POINT('',(0.04,-0.0625,-1.E-5));
#1085=CARTESIAN_POINT('',(0.04,-0.0625,-1.E-5));
#1086=CARTESIAN_POINT('',(0.04,-0.0625,-1.E-5));
#1087=CARTESIAN_POINT('',(0.0506370849898476,-0.0625,0.));
#1088=CARTESIAN_POINT('',(-0.0506370849898476,-0.0625,0.));
#1089=CARTESIAN_POINT('',(-0.0625,0.050637084989847,0.));
#1090=CARTESIAN_POINT('',(-0.0625,-0.050637084989847,0.));
#1091=CARTESIAN_POINT('',(0.0625,-0.050637084989847,0.));
#1092=CARTESIAN_POINT('',(0.0625,0.050637084989847,0.));
#1093=CARTESIAN_POINT('',(-0.0015,0.0571,-1.E-5));
#1094=CARTESIAN_POINT('',(-0.0015,0.0571,-1.E-5));
#1095=CARTESIAN_POINT('',(-0.0015,0.0571,-1.E-5));
#1096=CARTESIAN_POINT('',(-0.0015,0.0571,-1.E-5));
#1097=CARTESIAN_POINT('',(0.0015,0.0571,-1.E-5));
#1098=CARTESIAN_POINT('',(0.0015,0.0571,-1.E-5));
#1099=CARTESIAN_POINT('',(0.0015,0.0571,-1.E-5));
#1100=CARTESIAN_POINT('',(0.0015,0.0571,-1.E-5));
#1101=CARTESIAN_POINT('',(0.0015,0.0571,-1.E-5));
#1102=CARTESIAN_POINT('',(0.0015,0.0571,-1.E-5));
#1103=CARTESIAN_POINT('',(0.,0.,-1.E-5));
#1104=CARTESIAN_POINT('',(0.037,0.0571,-1.E-5));
#1105=CARTESIAN_POINT('',(0.037,0.0571,-1.E-5));
#1106=CARTESIAN_POINT('',(0.037,0.0571,-1.E-5));
#1107=CARTESIAN_POINT('',(0.037,0.0571,-1.E-5));
#1108=CARTESIAN_POINT('',(0.04,0.0571,-1.E-5));
#1109=CARTESIAN_POINT('',(0.04,0.0571,-1.E-5));
#1110=CARTESIAN_POINT('',(0.04,0.0571,-1.E-5));
#1111=CARTESIAN_POINT('',(0.04,0.0571,-1.E-5));
#1112=CARTESIAN_POINT('',(0.04,0.0571,-1.E-5));
#1113=CARTESIAN_POINT('',(0.04,0.0571,-1.E-5));
#1114=CARTESIAN_POINT('',(0.0385,0.,-1.E-5));
#1115=CARTESIAN_POINT('',(-0.04,0.0571,-1.E-5));
#1116=CARTESIAN_POINT('',(-0.04,0.0571,-1.E-5));
#1117=CARTESIAN_POINT('',(-0.04,0.0571,-1.E-5));
#1118=CARTESIAN_POINT('',(-0.04,0.0571,-1.E-5));
#1119=CARTESIAN_POINT('',(-0.037,0.0571,-1.E-5));
#1120=CARTESIAN_POINT('',(-0.037,0.0571,-1.E-5));
#1121=CARTESIAN_POINT('',(-0.037,0.0571,-1.E-5));
#1122=CARTESIAN_POINT('',(-0.037,0.0571,-1.E-5));
#1123=CARTESIAN_POINT('',(-0.037,0.0571,-1.E-5));
#1124=CARTESIAN_POINT('',(-0.037,0.0571,-1.E-5));
#1125=CARTESIAN_POINT('',(-0.0385,0.,-1.E-5));
#1126=CARTESIAN_POINT('',(-0.0015,-0.0571,-1.E-5));
#1127=CARTESIAN_POINT('',(-0.0015,-0.0571,-1.E-5));
#1128=CARTESIAN_POINT('',(-0.0015,-0.0571,-1.E-5));
#1129=CARTESIAN_POINT('',(-0.0015,-0.0571,-1.E-5));
#1130=CARTESIAN_POINT('',(0.0015,-0.0571,-1.E-5));
#1131=CARTESIAN_POINT('',(0.0015,-0.0571,-1.E-5));
#1132=CARTESIAN_POINT('',(0.0015,-0.0571,-1.E-5));
#1133=CARTESIAN_POINT('',(0.0015,-0.0571,-1.E-5));
#1134=CARTESIAN_POINT('',(0.0015,-0.0571,-1.E-5));
#1135=CARTESIAN_POINT('',(0.0015,-0.0571,-1.E-5));
#1136=CARTESIAN_POINT('',(0.,0.,-1.E-5));
#1137=CARTESIAN_POINT('',(0.037,-0.0571,-1.E-5));
#1138=CARTESIAN_POINT('',(0.037,-0.0571,-1.E-5));
#1139=CARTESIAN_POINT('',(0.037,-0.0571,-1.E-5));
#1140=CARTESIAN_POINT('',(0.037,-0.0571,-1.E-5));
#1141=CARTESIAN_POINT('',(0.04,-0.0571,-1.E-5));
#1142=CARTESIAN_POINT('',(0.04,-0.0571,-1.E-5));
#1143=CARTESIAN_POINT('',(0.04,-0.0571,-1.E-5));
#1144=CARTESIAN_POINT('',(0.04,-0.0571,-1.E-5));
#1145=CARTESIAN_POINT('',(0.04,-0.0571,-1.E-5));
#1146=CARTESIAN_POINT('',(0.04,-0.0571,-1.E-5));
#1147=CARTESIAN_POINT('',(0.0385,0.,-1.E-5));
#1148=CARTESIAN_POINT('',(-0.04,-0.0571,-1.E-5));
#1149=CARTESIAN_POINT('',(-0.04,-0.0571,-1.E-5));
#1150=CARTESIAN_POINT('',(-0.04,-0.0571,-1.E-5));
#1151=CARTESIAN_POINT('',(-0.04,-0.0571,-1.E-5));
#1152=CARTESIAN_POINT('',(-0.037,-0.0571,-1.E-5));
#1153=CARTESIAN_POINT('',(-0.037,-0.0571,-1.E-5));
#1154=CARTESIAN_POINT('',(-0.037,-0.0571,-1.E-5));
#1155=CARTESIAN_POINT('',(-0.037,-0.0571,-1.E-5));
#1156=CARTESIAN_POINT('',(-0.037,-0.0571,-1.E-5));
#1157=CARTESIAN_POINT('',(-0.037,-0.0571,-1.E-5));
#1158=CARTESIAN_POINT('',(-0.0385,0.,-1.E-5));
#1159=MECHANICAL_DESIGN_GEOMETRIC_PRESENTATION_REPRESENTATION('',(#702,
#658,#659,#660,#661,#662,#663,#664,#665),#1160);
#1160=(
GEOMETRIC_REPRESENTATION_CONTEXT(3)
GLOBAL_UNCERTAINTY_ASSIGNED_CONTEXT((#1161))
GLOBAL_UNIT_ASSIGNED_CONTEXT((#1164,#1163,#1162))
REPRESENTATION_CONTEXT('Part 1','TOP_LEVEL_ASSEMBLY_PART')
);
#1161=UNCERTAINTY_MEASURE_WITH_UNIT(LENGTH_MEASURE(1.E-8),#1164,
'DISTANCE_ACCURACY_VALUE','Maximum Tolerance applied to model');
#1162=(
NAMED_UNIT(*)
SI_UNIT($,.STERADIAN.)
SOLID_ANGLE_UNIT()
);
#1163=(
NAMED_UNIT(*)
PLANE_ANGLE_UNIT()
SI_UNIT($,.RADIAN.)
);
#1164=(
LENGTH_UNIT()
NAMED_UNIT(*)
SI_UNIT($,.METRE.)
);
#1165=PRODUCT_DEFINITION_SHAPE('','',#1166);
#1166=PRODUCT_DEFINITION('','',#1168,#1167);
#1167=PRODUCT_DEFINITION_CONTEXT('',#1174,'design');
#1168=PRODUCT_DEFINITION_FORMATION_WITH_SPECIFIED_SOURCE('','',#1170,
 .NOT_KNOWN.);
#1169=PRODUCT_RELATED_PRODUCT_CATEGORY('','',(#1170));
#1170=PRODUCT('Part 1','Part 1','Part 1',(#1172));
#1171=PRODUCT_CATEGORY('','');
#1172=PRODUCT_CONTEXT('',#1174,'mechanical');
#1173=APPLICATION_PROTOCOL_DEFINITION('international standard',
'ap242_managed_model_based_3d_engineering',2011,#1174);
#1174=APPLICATION_CONTEXT('managed model based 3d engineering');
ENDSEC;
END-ISO-10303-21;
